<svg xmlns="http://www.w3.org/2000/svg" width="22.914" height="21.828" viewBox="0 0 22.914 21.828">
  <g id="Group_343" data-name="Group 343" transform="translate(-373.086 -531.086)">
    <path id="ic_remove_red_eye_24px" d="M12,4.5A11.827,11.827,0,0,0,1,12a11.817,11.817,0,0,0,22,0A11.827,11.827,0,0,0,12,4.5ZM12,17a5,5,0,1,1,5-5A5,5,0,0,1,12,17Zm0-8a3,3,0,1,0,3,3A3,3,0,0,0,12,9Z" transform="translate(373 530.5)" fill="currentColor"/>
    <line id="Line_124" data-name="Line 124" x1="20" y2="19" transform="translate(374.5 532.5)" fill="none" stroke="currentColor" stroke-linecap="round" stroke-width="2"/>
  </g>
</svg>
